<?xml version="1.0" encoding="UTF-8" standalone="no"?>
<!-- Created with Inkscape (http://www.inkscape.org/) -->

<svg
   xmlns:dc="http://purl.org/dc/elements/1.1/"
   xmlns:cc="http://creativecommons.org/ns#"
   xmlns:rdf="http://www.w3.org/1999/02/22-rdf-syntax-ns#"
   xmlns:svg="http://www.w3.org/2000/svg"
   xmlns="http://www.w3.org/2000/svg"
   xmlns:sodipodi="http://sodipodi.sourceforge.net/DTD/sodipodi-0.dtd"
   xmlns:inkscape="http://www.inkscape.org/namespaces/inkscape"
   width="219.29694mm"
   height="239.83485mm"
   viewBox="0 0 777.03639 849.80853"
   id="svg5816"
   version="1.1"
   inkscape:version="0.91 r13725"
   sodipodi:docname=" Chikasaurus.svg">
  <defs
     id="defs5818" />
  <sodipodi:namedview
     id="base"
     pagecolor="#ffffff"
     bordercolor="#666666"
     borderopacity="1.0"
     inkscape:pageopacity="0.0"
     inkscape:pageshadow="2"
     inkscape:zoom="0.7"
     inkscape:cx="347.72631"
     inkscape:cy="396.71096"
     inkscape:document-units="px"
     inkscape:current-layer="layer1"
     showgrid="false"
     fit-margin-top="0"
     fit-margin-left="0"
     fit-margin-right="0"
     fit-margin-bottom="0"
     inkscape:window-width="1863"
     inkscape:window-height="1155"
     inkscape:window-x="0"
     inkscape:window-y="1"
     inkscape:window-maximized="1" />
  <metadata
     id="metadata5821">
    <rdf:RDF>
      <cc:Work
         rdf:about="">
        <dc:format>image/svg+xml</dc:format>
        <dc:type
           rdf:resource="http://purl.org/dc/dcmitype/StillImage" />
        <dc:title></dc:title>
      </cc:Work>
    </rdf:RDF>
  </metadata>
  <g
     inkscape:label="Layer 1"
     inkscape:groupmode="layer"
     id="layer1"
     transform="translate(20.284364,-79.264606)">
    <path
       inkscape:connector-curvature="0"
       style="fill:#7d6b2f;fill-opacity:1;stroke:#b09b54;stroke-width:0;stroke-miterlimit:4;stroke-dasharray:none;stroke-opacity:1"
       d="m 383.12071,609.73772 7.98774,21.59771 218.88086,-80.53583 1.03996,0.94442 1.80854,-1.99235 0.82659,-0.30442 -0.15962,-0.43035 42.65283,-46.99022 -10.57785,-9.60144 -32.05436,35.31158 20.43242,-50.41239 -13.24051,-5.36683 -18.4418,45.50019 -14.57271,-39.84864 -13.41801,4.90698 18.33529,50.13731 -209.49954,77.08428 z"
       id="rect6151-0-0-9" />
    <path
       inkscape:connector-curvature="0"
       style="fill:#7d6b2f;fill-opacity:1;stroke:#b09b54;stroke-width:0;stroke-miterlimit:4;stroke-dasharray:none;stroke-opacity:1"
       d="m 309.27789,635.65131 -23.02734,0.084 0.46093,233.22657 -1.24414,0.65234 1.25,2.38281 0.002,0.88086 0.45898,-0.002 29.48242,56.19727 12.65039,-6.63672 -22.15429,-42.23242 40.32812,36.5039 9.58789,-10.5918 -36.39844,-32.94726 42.42969,0 0,-14.28711 -53.38476,0 -0.44141,-223.23048 z"
       id="rect6151-0-0-93" />
    <path
       sodipodi:type="star"
       style="fill:#d69f28;fill-opacity:1;stroke:#a17c2a;stroke-width:5;stroke-miterlimit:4;stroke-dasharray:none;stroke-opacity:1"
       id="path6217"
       sodipodi:sides="3"
       sodipodi:cx="97.14286"
       sodipodi:cy="303.79077"
       sodipodi:r1="35.714287"
       sodipodi:r2="17.857143"
       sodipodi:arg1="0.92729522"
       sodipodi:arg2="1.9744928"
       inkscape:flatsided="true"
       inkscape:rounded="0"
       inkscape:randomized="0"
       d="M 118.57143,332.3622 61.684991,308.06274 111.17216,270.94737 Z"
       inkscape:transform-center-x="11.536458"
       inkscape:transform-center-y="-5.4637455"
       transform="matrix(-1.5505724,1.0708355,0.54229064,0.7852382,677.31802,-197.58349)" />
    <path
       style="fill:#7d6b2f;fill-opacity:1;stroke:#b09b54;stroke-width:0;stroke-miterlimit:4;stroke-dasharray:none;stroke-opacity:1"
       d="m 383.31697,617.70257 -23.02734,0.084 0.46093,233.22656 -1.24414,0.65234 1.25,2.38281 0.002,0.88086 0.45898,-0.002 29.48242,56.19727 12.65039,-6.63672 -22.15429,-42.23242 40.32812,36.5039 9.58789,-10.5918 -36.39844,-32.94726 42.42969,0 0,-14.28711 -53.38476,0 -0.44141,-223.23047 z"
       id="rect6151-0-0"
       inkscape:connector-curvature="0" />
    <path
       style="fill:#2b962a;fill-opacity:1;stroke:#5aaa59;stroke-width:8;stroke-miterlimit:4;stroke-dasharray:none;stroke-opacity:1"
       id="path6215"
       transform="matrix(-0.79504988,0.60654405,-0.60654405,-0.79504988,0,0)"
       sodipodi:type="arc"
       sodipodi:cx="-271.57758"
       sodipodi:cy="-354.41296"
       sodipodi:rx="18.591087"
       sodipodi:ry="40.019657"
       sodipodi:start="0"
       sodipodi:end="3.1275373"
       d="m -252.98649,-354.41296 a 18.591087,40.019657 0 0 1 -18.46043,40.01867 18.591087,40.019657 0 0 1 -18.71991,-39.4562 l 18.58925,-0.56247 z" />
    <path
       style="fill:#2b962a;fill-opacity:1;stroke:#5aaa59;stroke-width:8;stroke-miterlimit:4;stroke-dasharray:none;stroke-opacity:1"
       id="path6215-3"
       transform="matrix(-0.76144687,0.64822733,-0.64822733,-0.76144687,0,0)"
       sodipodi:type="arc"
       sodipodi:cx="-213.64056"
       sodipodi:cy="-368.1041"
       sodipodi:rx="18.591087"
       sodipodi:ry="40.019657"
       sodipodi:start="0"
       sodipodi:end="3.1275373"
       d="m -195.04948,-368.1041 a 18.591087,40.019657 0 0 1 -18.46043,40.01867 18.591087,40.019657 0 0 1 -18.7199,-39.45619 l 18.58925,-0.56248 z" />
    <path
       style="fill:#2b962a;fill-opacity:1;stroke:#5aaa59;stroke-width:8;stroke-miterlimit:4;stroke-dasharray:none;stroke-opacity:1"
       id="path6215-5"
       transform="matrix(-0.54127069,0.84084841,-0.84084841,-0.54127069,0,0)"
       sodipodi:type="arc"
       sodipodi:cx="-63.960842"
       sodipodi:cy="-408.32852"
       sodipodi:rx="18.591087"
       sodipodi:ry="40.019657"
       sodipodi:start="0"
       sodipodi:end="3.1275373"
       d="m -45.369755,-408.32852 a 18.591087,40.019657 0 0 1 -18.460436,40.01867 18.591087,40.019657 0 0 1 -18.719902,-39.4562 l 18.589251,-0.56247 z" />
    <path
       style="fill:#2b962a;fill-opacity:1;stroke:#5aaa59;stroke-width:8;stroke-miterlimit:4;stroke-dasharray:none;stroke-opacity:1"
       id="path6215-3-8"
       transform="matrix(-0.44126986,0.89737445,-0.89737445,-0.44126986,0,0)"
       sodipodi:type="arc"
       sodipodi:cx="23.166626"
       sodipodi:cy="-415.94485"
       sodipodi:rx="18.591087"
       sodipodi:ry="40.019657"
       sodipodi:start="0"
       sodipodi:end="3.1275373"
       d="m 41.757713,-415.94485 a 18.591087,40.019657 0 0 1 -18.460436,40.01866 18.591087,40.019657 0 0 1 -18.719902,-39.45619 l 18.589251,-0.56247 z" />
    <path
       style="fill:#2b962a;fill-opacity:1;stroke:#5aaa59;stroke-width:8;stroke-miterlimit:4;stroke-dasharray:none;stroke-opacity:1"
       id="path6215-3-8-8"
       transform="matrix(-0.05134566,0.99868094,-0.99868094,-0.05134566,0,0)"
       sodipodi:type="arc"
       sodipodi:cx="219.30598"
       sodipodi:cy="-364.45422"
       sodipodi:rx="18.591087"
       sodipodi:ry="40.019657"
       sodipodi:start="0"
       sodipodi:end="3.1275373"
       d="m 237.89707,-364.45422 a 18.591087,40.019657 0 0 1 -18.46043,40.01867 18.591087,40.019657 0 0 1 -18.71991,-39.4562 l 18.58925,-0.56247 z" />
    <path
       style="fill:#2b962a;fill-opacity:1;stroke:#5aaa59;stroke-width:8;stroke-miterlimit:4;stroke-dasharray:none;stroke-opacity:1"
       id="path6215-3-8-8-5-4"
       transform="matrix(-0.85016002,0.5265244,-0.5265244,-0.85016002,0,0)"
       sodipodi:type="arc"
       sodipodi:cx="-121.52893"
       sodipodi:cy="-466.03543"
       sodipodi:rx="18.591087"
       sodipodi:ry="40.019657"
       sodipodi:start="0"
       sodipodi:end="3.1275373"
       d="m -102.93784,-466.03543 a 18.591087,40.019657 0 0 1 -18.46044,40.01867 18.591087,40.019657 0 0 1 -18.7199,-39.4562 l 18.58925,-0.56247 z" />
    <path
       style="fill:#2b962a;fill-opacity:1;stroke:#5aaa59;stroke-width:8;stroke-miterlimit:4;stroke-dasharray:none;stroke-opacity:1"
       id="path6215-3-8-8-5-0"
       transform="matrix(-0.58401636,0.81174189,-0.81174189,-0.58401636,0,0)"
       sodipodi:type="arc"
       sodipodi:cx="99.587418"
       sodipodi:cy="-467.81113"
       sodipodi:rx="18.591087"
       sodipodi:ry="40.019657"
       sodipodi:start="0"
       sodipodi:end="3.1275373"
       d="m 118.1785,-467.81113 a 18.591087,40.019657 0 0 1 -18.460431,40.01867 18.591087,40.019657 0 0 1 -18.719902,-39.45619 l 18.589251,-0.56248 z" />
    <path
       style="fill:#2b962a;fill-opacity:1;stroke:#5aaa59;stroke-width:8;stroke-miterlimit:4;stroke-dasharray:none;stroke-opacity:1"
       id="path6215-3-8-8-5-1"
       transform="matrix(-0.65023461,0.75973347,-0.75973347,-0.65023461,0,0)"
       sodipodi:type="arc"
       sodipodi:cx="102.06905"
       sodipodi:cy="-477.78"
       sodipodi:rx="18.591087"
       sodipodi:ry="40.019657"
       sodipodi:start="0"
       sodipodi:end="3.1275373"
       d="m 120.66014,-477.78 a 18.591087,40.019657 0 0 1 -18.46044,40.01867 18.591087,40.019657 0 0 1 -18.719897,-39.4562 L 102.06905,-477.78 Z" />
    <path
       style="fill:#2b962a;fill-opacity:1;stroke:#5aaa59;stroke-width:8;stroke-miterlimit:4;stroke-dasharray:none;stroke-opacity:1"
       id="path6215-3-8-8-5-1-8"
       transform="matrix(-0.65023461,0.75973347,-0.75973347,-0.65023461,0,0)"
       sodipodi:type="arc"
       sodipodi:cx="144.83968"
       sodipodi:cy="-473.40323"
       sodipodi:rx="18.591087"
       sodipodi:ry="40.019657"
       sodipodi:start="0"
       sodipodi:end="3.1275373"
       d="m 163.43076,-473.40323 a 18.591087,40.019657 0 0 1 -18.46043,40.01867 18.591087,40.019657 0 0 1 -18.71991,-39.4562 l 18.58926,-0.56247 z" />
    <path
       style="fill:#2b962a;fill-opacity:1;stroke:#5aaa59;stroke-width:8;stroke-miterlimit:4;stroke-dasharray:none;stroke-opacity:1"
       id="path6215-3-8-8-5-1-4"
       transform="matrix(-0.55628651,0.83099056,-0.83099056,-0.55628651,0,0)"
       sodipodi:type="arc"
       sodipodi:cx="238.95926"
       sodipodi:cy="-451.11502"
       sodipodi:rx="18.591087"
       sodipodi:ry="40.019657"
       sodipodi:start="0"
       sodipodi:end="3.1275373"
       d="m 257.55035,-451.11502 a 18.591087,40.019657 0 0 1 -18.46044,40.01867 18.591087,40.019657 0 0 1 -18.7199,-39.4562 l 18.58925,-0.56247 z" />
    <path
       style="fill:#2b962a;fill-opacity:1;stroke:#5aaa59;stroke-width:8;stroke-miterlimit:4;stroke-dasharray:none;stroke-opacity:1"
       id="path6215-3-8-8-5-1-7"
       transform="matrix(-0.4443507,0.89585292,-0.89585292,-0.4443507,0,0)"
       sodipodi:type="arc"
       sodipodi:cx="335.8215"
       sodipodi:cy="-418.23172"
       sodipodi:rx="18.591087"
       sodipodi:ry="40.019657"
       sodipodi:start="0"
       sodipodi:end="3.1275373"
       d="m 354.41259,-418.23172 a 18.591087,40.019657 0 0 1 -18.46044,40.01867 18.591087,40.019657 0 0 1 -18.7199,-39.4562 l 18.58925,-0.56247 z" />
    <path
       style="fill:#2b962a;fill-opacity:1;stroke:#5aaa59;stroke-width:8;stroke-miterlimit:4;stroke-dasharray:none;stroke-opacity:1"
       id="path6215-3-8-8-5-1-7-1"
       transform="matrix(-0.27440847,0.96161322,-0.96161322,-0.27440847,0,0)"
       sodipodi:type="arc"
       sodipodi:cx="447.2334"
       sodipodi:cy="-348.9404"
       sodipodi:rx="18.591087"
       sodipodi:ry="40.019657"
       sodipodi:start="0"
       sodipodi:end="3.1275373"
       d="m 465.82449,-348.9404 a 18.591087,40.019657 0 0 1 -18.46044,40.01867 18.591087,40.019657 0 0 1 -18.7199,-39.4562 l 18.58925,-0.56247 z" />
    <path
       style="fill:#2b962a;fill-opacity:1;stroke:#5aaa59;stroke-width:8;stroke-miterlimit:4;stroke-dasharray:none;stroke-opacity:1"
       id="path6215-3-8-8-5-1-7-1-7"
       transform="matrix(-0.27440847,0.96161322,-0.96161322,-0.27440847,0,0)"
       sodipodi:type="arc"
       sodipodi:cx="486.97733"
       sodipodi:cy="-357.20865"
       sodipodi:rx="18.591087"
       sodipodi:ry="40.019657"
       sodipodi:start="0"
       sodipodi:end="3.1275373"
       d="m 505.56841,-357.20865 a 18.591087,40.019657 0 0 1 -18.46043,40.01867 18.591087,40.019657 0 0 1 -18.71991,-39.4562 l 18.58926,-0.56247 z" />
    <path
       style="fill:#2b962a;fill-opacity:1;stroke:#5aaa59;stroke-width:8;stroke-miterlimit:4;stroke-dasharray:none;stroke-opacity:1"
       id="path6215-2"
       transform="matrix(-0.74816597,0.66351162,-0.66351162,-0.74816597,0,0)"
       sodipodi:type="arc"
       sodipodi:cx="264.82056"
       sodipodi:cy="-578.39862"
       sodipodi:rx="18.591087"
       sodipodi:ry="40.019657"
       sodipodi:start="0"
       sodipodi:end="3.1275373"
       d="m 283.41164,-578.39862 a 18.591087,40.019657 0 0 1 -18.46043,40.01867 18.591087,40.019657 0 0 1 -18.7199,-39.4562 l 18.58925,-0.56247 z" />
    <path
       style="fill:#2b962a;fill-opacity:1;stroke:#5aaa59;stroke-width:8;stroke-miterlimit:4;stroke-dasharray:none;stroke-opacity:1"
       id="path6215-3-9"
       transform="matrix(-0.71158114,0.70260393,-0.70260393,-0.71158114,0,0)"
       sodipodi:type="arc"
       sodipodi:cx="333.97693"
       sodipodi:cy="-563.05963"
       sodipodi:rx="18.591087"
       sodipodi:ry="40.019657"
       sodipodi:start="0"
       sodipodi:end="3.1275373"
       d="m 352.56802,-563.05963 a 18.591087,40.019657 0 0 1 -18.46044,40.01867 18.591087,40.019657 0 0 1 -18.7199,-39.4562 l 18.58925,-0.56247 z" />
    <path
       style="fill:#2b962a;fill-opacity:1;stroke:#5aaa59;stroke-width:8;stroke-miterlimit:4;stroke-dasharray:none;stroke-opacity:1"
       id="path6215-2-0"
       transform="matrix(-0.74816597,0.66351162,-0.66351162,-0.74816597,0,0)"
       sodipodi:type="arc"
       sodipodi:cx="344.68185"
       sodipodi:cy="-583.04773"
       sodipodi:rx="18.591087"
       sodipodi:ry="40.019657"
       sodipodi:start="0"
       sodipodi:end="3.1275373"
       d="m 363.27294,-583.04773 a 18.591087,40.019657 0 0 1 -18.46043,40.01867 18.591087,40.019657 0 0 1 -18.71991,-39.4562 l 18.58925,-0.56247 z" />
    <path
       style="fill:#2b962a;fill-opacity:1;stroke:#5aaa59;stroke-width:8;stroke-miterlimit:4;stroke-dasharray:none;stroke-opacity:1"
       id="path6215-3-9-5"
       transform="matrix(-0.71158114,0.70260393,-0.70260393,-0.71158114,0,0)"
       sodipodi:type="arc"
       sodipodi:cx="413.9726"
       sodipodi:cy="-563.42767"
       sodipodi:rx="18.591087"
       sodipodi:ry="40.019657"
       sodipodi:start="0"
       sodipodi:end="3.1275373"
       d="m 432.56368,-563.42767 a 18.591087,40.019657 0 0 1 -18.46043,40.01867 18.591087,40.019657 0 0 1 -18.71991,-39.4562 l 18.58926,-0.56247 z" />
    <path
       style="fill:#2b962a;fill-opacity:1;stroke:#5aaa59;stroke-width:8;stroke-miterlimit:4;stroke-dasharray:none;stroke-opacity:1"
       id="path6215-2-3"
       transform="matrix(-0.74816597,0.66351162,-0.66351162,-0.74816597,0,0)"
       sodipodi:type="arc"
       sodipodi:cx="424.40128"
       sodipodi:cy="-586.81628"
       sodipodi:rx="18.591087"
       sodipodi:ry="40.019657"
       sodipodi:start="0"
       sodipodi:end="3.1275373"
       d="m 442.99236,-586.81628 a 18.591087,40.019657 0 0 1 -18.46043,40.01866 18.591087,40.019657 0 0 1 -18.71991,-39.45619 l 18.58926,-0.56247 z" />
    <path
       style="fill:#2b962a;fill-opacity:1;stroke:#5aaa59;stroke-width:8;stroke-miterlimit:4;stroke-dasharray:none;stroke-opacity:1"
       id="path6215-3-9-0"
       transform="matrix(-0.71158114,0.70260393,-0.70260393,-0.71158114,0,0)"
       sodipodi:type="arc"
       sodipodi:cx="493.77945"
       sodipodi:cy="-562.92413"
       sodipodi:rx="18.591087"
       sodipodi:ry="40.019657"
       sodipodi:start="0"
       sodipodi:end="3.1275373"
       d="m 512.37054,-562.92413 a 18.591087,40.019657 0 0 1 -18.46044,40.01867 18.591087,40.019657 0 0 1 -18.7199,-39.4562 l 18.58925,-0.56247 z" />
    <path
       style="fill:#ebebde;fill-opacity:1;stroke:#76705e;stroke-width:35;stroke-miterlimit:4;stroke-dasharray:none;stroke-opacity:1"
       d="M 431.4043,327.40318 A 136.66411,211.72091 27.817253 0 0 300.0918,397.34849 136.66411,211.72091 27.817253 0 0 220.47266,597.97935 L -7.888672,827.12974 294.51367,719.20005 A 136.66411,211.72091 27.817253 0 0 452.76562,653.08873 136.66411,211.72091 27.817253 0 0 512.60547,374.28599 136.66411,211.72091 27.817253 0 0 431.4043,327.40318 Z"
       id="path4692-5"
       inkscape:connector-curvature="0" />
    <ellipse
       style="fill:#5aaa59;fill-opacity:1;stroke:#404025;stroke-width:10.61475658;stroke-miterlimit:1;stroke-dasharray:none;stroke-opacity:1"
       id="path4284-1-1"
       cx="-593.01215"
       cy="315.008"
       rx="22.729506"
       ry="111.27261"
       transform="matrix(-0.90631173,-0.42260981,-0.48855226,0.87253463,0,0)" />
    <g
       id="g6673">
      <ellipse
         transform="matrix(0.31787903,0.94813128,0.91844207,-0.39555552,0,0)"
         ry="152.23203"
         rx="127.38146"
         cy="413.9248"
         cx="416.08578"
         id="path4692"
         style="fill:#ebebde;fill-opacity:1;stroke:#76705e;stroke-width:30.05199814;stroke-miterlimit:4;stroke-dasharray:none;stroke-opacity:1" />
      <ellipse
         transform="matrix(-0.99228567,-0.12397241,-0.12397241,0.99228567,0,0)"
         ry="40.019657"
         rx="18.591087"
         cy="112.11126"
         cx="-549.52319"
         id="path6215-7"
         style="fill:#404025;fill-opacity:1;stroke:#b49f59;stroke-width:2.10353565;stroke-miterlimit:4;stroke-dasharray:none;stroke-opacity:1" />
    </g>
    <path
       inkscape:connector-curvature="0"
       style="fill:#7d6b2f;fill-opacity:1;stroke:#b09b54;stroke-width:0;stroke-miterlimit:4;stroke-dasharray:none;stroke-opacity:1"
       d="m 336.64647,504.6778 -15.68433,16.86022 -171.02889,-158.5685 -1.32332,0.47145 -0.9025,-2.53491 -0.64577,-0.59907 0.31295,-0.33579 -21.28373,-59.78584 13.45824,-4.7911 15.99602,44.92791 0.54229,-54.393 14.28614,0.14208 -0.48916,49.09305 28.78594,-31.17127 10.49613,9.69292 -36.21828,39.2195 163.69843,151.77242 z"
       id="rect6151-0-0-9-2" />
  </g>
</svg>
