<?xml version="1.0" encoding="UTF-8" standalone="no"?>
<!-- Created with Inkscape (http://www.inkscape.org/) -->

<svg
   xmlns:dc="http://purl.org/dc/elements/1.1/"
   xmlns:cc="http://creativecommons.org/ns#"
   xmlns:rdf="http://www.w3.org/1999/02/22-rdf-syntax-ns#"
   xmlns:svg="http://www.w3.org/2000/svg"
   xmlns="http://www.w3.org/2000/svg"
   xmlns:sodipodi="http://sodipodi.sourceforge.net/DTD/sodipodi-0.dtd"
   xmlns:inkscape="http://www.inkscape.org/namespaces/inkscape"
   width="225.34117mm"
   height="223.33815mm"
   viewBox="0 0 798.45297 791.35565"
   id="svg4776"
   version="1.1"
   inkscape:version="0.91 r13725"
   sodipodi:docname="Volcano Geyser.svg">
  <defs
     id="defs4778">
    <inkscape:path-effect
       effect="spiro"
       id="path-effect7639-6-1"
       is_visible="true" />
    <inkscape:path-effect
       effect="spiro"
       id="path-effect7639"
       is_visible="true" />
    <inkscape:path-effect
       effect="spiro"
       id="path-effect7639-6-1-9"
       is_visible="true" />
    <inkscape:path-effect
       effect="spiro"
       id="path-effect7639-3"
       is_visible="true" />
    <inkscape:path-effect
       effect="spiro"
       id="path-effect7639-3-2"
       is_visible="true" />
    <inkscape:path-effect
       effect="spiro"
       id="path-effect7639-3-2-7"
       is_visible="true" />
    <inkscape:path-effect
       effect="spiro"
       id="path-effect7639-6-1-5"
       is_visible="true" />
    <inkscape:path-effect
       effect="spiro"
       id="path-effect7639-0"
       is_visible="true" />
  </defs>
  <sodipodi:namedview
     id="base"
     pagecolor="#ffffff"
     bordercolor="#666666"
     borderopacity="1.0"
     inkscape:pageopacity="0.0"
     inkscape:pageshadow="2"
     inkscape:zoom="0.7"
     inkscape:cx="111.17539"
     inkscape:cy="304.20961"
     inkscape:document-units="px"
     inkscape:current-layer="layer1"
     showgrid="false"
     fit-margin-top="0"
     fit-margin-left="0"
     fit-margin-right="0"
     fit-margin-bottom="0"
     inkscape:window-width="1863"
     inkscape:window-height="1155"
     inkscape:window-x="0"
     inkscape:window-y="1"
     inkscape:window-maximized="1" />
  <metadata
     id="metadata4781">
    <rdf:RDF>
      <cc:Work
         rdf:about="">
        <dc:format>image/svg+xml</dc:format>
        <dc:type
           rdf:resource="http://purl.org/dc/dcmitype/StillImage" />
        <dc:title></dc:title>
      </cc:Work>
    </rdf:RDF>
  </metadata>
  <g
     inkscape:label="Layer 1"
     inkscape:groupmode="layer"
     id="layer1"
     transform="translate(12.328019,-137.61403)">
    <path
       style="color:#000000;clip-rule:nonzero;display:inline;overflow:visible;visibility:visible;opacity:1;isolation:auto;mix-blend-mode:normal;color-interpolation:sRGB;color-interpolation-filters:linearRGB;solid-color:#000000;solid-opacity:1;fill:#502d16;fill-opacity:1;fill-rule:nonzero;stroke:#502d16;stroke-width:46.14406967;stroke-linecap:round;stroke-linejoin:miter;stroke-miterlimit:4;stroke-dasharray:none;stroke-dashoffset:0;stroke-opacity:1;color-rendering:auto;image-rendering:auto;shape-rendering:auto;text-rendering:auto;enable-background:accumulate"
       d="m 696.50616,892.52337 c -63.4235,-46.3024 -108.21381,-131.2033 -130.3784,-247.13463 -7.62624,-39.88883 -11.77513,-73.39133 -19.42147,-156.82918 -5.09782,-55.62801 -11.44489,-115.35338 -12.16652,-114.48597 -0.78107,0.93882 4.3077,145.63168 6.82231,193.98463 7.67412,147.56373 24.48108,258.22525 48.13151,316.91055 l 5.97076,14.8157 55.49391,0 55.4939,0 -9.946,-7.2611 z"
       id="path5467-7"
       inkscape:connector-curvature="0" />
    <path
       style="color:#000000;clip-rule:nonzero;display:inline;overflow:visible;visibility:visible;opacity:1;isolation:auto;mix-blend-mode:normal;color-interpolation:sRGB;color-interpolation-filters:linearRGB;solid-color:#000000;solid-opacity:1;fill:#502d16;fill-opacity:1;fill-rule:nonzero;stroke:#502d16;stroke-width:46.14406967;stroke-linecap:round;stroke-linejoin:miter;stroke-miterlimit:4;stroke-dasharray:none;stroke-dashoffset:0;stroke-opacity:1;color-rendering:auto;image-rendering:auto;shape-rendering:auto;text-rendering:auto;enable-background:accumulate"
       d="M 82.886374,895.45579 C 146.30988,849.15334 191.10019,764.25249 213.26478,648.32115 c 7.62624,-39.88883 11.77513,-73.39133 19.42147,-156.82918 5.09782,-55.62801 11.44489,-115.35338 12.16652,-114.48597 0.78107,0.93882 -4.3077,145.63168 -6.82231,193.98463 -7.67412,147.56373 -24.48108,258.22523 -48.13151,316.91058 l -5.97076,14.81567 -55.49391,0 -55.493905,0 9.945999,-7.26109 z"
       id="path5467"
       inkscape:connector-curvature="0" />
    <path
       style="fill:#502d16;fill-opacity:1;stroke:#734e35;stroke-width:0;stroke-linecap:butt;stroke-linejoin:miter;stroke-miterlimit:4;stroke-dasharray:none;stroke-opacity:1"
       d="m 496.34213,924.22861 c -0.30239,-1.10677 -78.67038,-1.13149 -174.15105,-0.0546 -95.48068,1.0772 -173.48353,1.49998 -173.33969,0.93957 0.14385,-0.56052 4.22947,-7.18113 9.07914,-14.7127 21.82255,-33.89075 41.22625,-113.43117 51.30958,-210.33046 8.03356,-77.20133 10.91898,-145.37524 14.19923,-335.48726 1.24461,-72.13362 2.49351,-132.11478 2.77533,-133.29139 0.28182,-1.17667 6.35965,3.79741 13.5063,11.05355 41.22932,41.86081 70.83883,54.39127 133.97256,56.69598 70.47183,2.5726 111.18157,-12.49254 153.20326,-56.69475 9.03877,-9.50785 16.67849,-16.39311 16.97695,-15.30049 0.55463,2.0303 1.73203,25.60511 9.2181,184.5831 6.72451,142.80344 12.22499,213.24779 22.40551,286.946 13.0115,94.19177 25.0944,142.24254 49.40767,196.48262 l 10.11527,22.56609 -5.93435,2.89198 c -6.75838,3.29317 -131.90218,6.79377 -132.74381,3.71276 z"
       id="path3351-9"
       inkscape:connector-curvature="0" />
    <ellipse
       style="fill:#f12713;fill-opacity:1;stroke:#734e35;stroke-width:35;stroke-linecap:round;stroke-miterlimit:4;stroke-dasharray:none;stroke-opacity:1"
       id="path7039-9-1"
       cx="385.71429"
       cy="223.79077"
       rx="146.43974"
       ry="68.676743" />
    <path
       style="fill:none;fill-rule:evenodd;stroke:#734e35;stroke-width:40.98120499;stroke-linecap:butt;stroke-linejoin:miter;stroke-miterlimit:4;stroke-dasharray:none;stroke-opacity:1"
       d="m 243.30328,234.34762 c -19.45197,59.48738 -33.8932,120.61236 -43.12061,182.51536 -12.79844,85.85965 -15.62643,173.38897 -36.1403,257.73861 -10.25694,42.17481 -24.99795,83.49843 -46.81423,121.02135 -21.816284,37.52292 -50.912267,71.21426 -86.8759,95.51523 -10.814726,7.30761 -22.2138342,13.75013 -34.052639,19.24579"
       id="path7637-7-7"
       inkscape:path-effect="#path-effect7639-3-2"
       inkscape:original-d="M 243.30328,234.34762 C 227.46253,280.68589 212.46945,374.73896 200.18267,416.86298 155.56761,569.82061 96.706573,842.08005 30.35224,891.13817 18.857325,899.63671 6.3053901,912.38801 -3.700399,910.38396"
       inkscape:connector-curvature="0" />
    <path
       style="fill:none;fill-rule:evenodd;stroke:#734e35;stroke-width:40.98120499;stroke-linecap:butt;stroke-linejoin:miter;stroke-miterlimit:4;stroke-dasharray:none;stroke-opacity:1"
       d="m 530.49364,223.94969 c 19.45197,59.48738 33.8932,120.61236 43.12061,182.51536 12.79844,85.85964 15.62645,173.38895 36.14032,257.73858 10.25694,42.17481 24.99795,83.49842 46.81423,121.02134 21.81628,37.52292 50.91226,71.21426 86.87588,95.51523 10.81473,7.30762 22.21383,13.75014 34.05264,19.2458"
       id="path7637-7-7-9"
       inkscape:path-effect="#path-effect7639-3-2-7"
       inkscape:original-d="m 530.49364,223.94969 c 15.84075,46.33827 30.83383,140.39134 43.12061,182.51536 44.61506,152.95763 103.4761,425.21707 169.83043,474.27515 11.49492,8.4986 24.04685,21.2499 34.05264,19.2458"
       inkscape:connector-curvature="0" />
  </g>
</svg>
