<?xml version="1.0" encoding="UTF-8" standalone="no"?>
<!-- Created with Inkscape (http://www.inkscape.org/) -->

<svg
   xmlns:dc="http://purl.org/dc/elements/1.1/"
   xmlns:cc="http://creativecommons.org/ns#"
   xmlns:rdf="http://www.w3.org/1999/02/22-rdf-syntax-ns#"
   xmlns:svg="http://www.w3.org/2000/svg"
   xmlns="http://www.w3.org/2000/svg"
   xmlns:sodipodi="http://sodipodi.sourceforge.net/DTD/sodipodi-0.dtd"
   xmlns:inkscape="http://www.inkscape.org/namespaces/inkscape"
   width="107.11533mm"
   height="131.6665mm"
   viewBox="0 0 379.54252 466.53485"
   id="svg5145"
   version="1.1"
   inkscape:version="0.91 r13725"
   sodipodi:docname="Cat Fixed.svg">
  <defs
     id="defs5147" />
  <sodipodi:namedview
     id="base"
     pagecolor="#ffffff"
     bordercolor="#666666"
     borderopacity="1.0"
     inkscape:pageopacity="0.0"
     inkscape:pageshadow="2"
     inkscape:zoom="0.49497475"
     inkscape:cx="-20.344613"
     inkscape:cy="182.70304"
     inkscape:document-units="px"
     inkscape:current-layer="layer1"
     showgrid="false"
     inkscape:window-width="1863"
     inkscape:window-height="1155"
     inkscape:window-x="0"
     inkscape:window-y="1"
     inkscape:window-maximized="1"
     fit-margin-top="0"
     fit-margin-left="0"
     fit-margin-right="0"
     fit-margin-bottom="0" />
  <metadata
     id="metadata5150">
    <rdf:RDF>
      <cc:Work
         rdf:about="">
        <dc:format>image/svg+xml</dc:format>
        <dc:type
           rdf:resource="http://purl.org/dc/dcmitype/StillImage" />
        <dc:title></dc:title>
      </cc:Work>
    </rdf:RDF>
  </metadata>
  <g
     inkscape:label="Layer 1"
     inkscape:groupmode="layer"
     id="layer1"
     transform="translate(-188.20176,-248.5304)">
    <path
       sodipodi:type="spiral"
       style="fill:#d97931;fill-opacity:1;fill-rule:evenodd;stroke:#486f74;stroke-width:15;stroke-linecap:butt;stroke-linejoin:miter;stroke-miterlimit:4;stroke-dasharray:none;stroke-opacity:1"
       id="path5764"
       sodipodi:cx="387.14288"
       sodipodi:cy="518.07648"
       sodipodi:expansion="1"
       sodipodi:revolution="3.2250562"
       sodipodi:radius="85.850525"
       sodipodi:argument="-18.102114"
       sodipodi:t0="0"
       d="m 387.14288,518.07648 c 2.93668,2.7218 -2.22008,5.30142 -4.52381,4.88095 -6.24297,-1.13946 -7.53929,-9.03127 -5.23809,-13.92858 4.11633,-8.76012 15.61451,-10.20469 23.33334,-5.59522 11.32769,6.76458 12.94502,22.28557 5.95236,32.73809 -9.32011,13.93157 -28.98763,15.71703 -42.14285,6.30951 -16.55451,-11.83841 -18.50538,-35.70441 -6.66664,-51.54762 14.33828,-19.18825 42.42946,-21.30317 60.95237,-7.02378 21.82861,16.82776 24.1069,49.15969 7.38092,70.35714 -19.3108,24.47329 -55.89336,26.91458 -79.7619,7.73805 -27.12095,-21.78958 -29.72503,-62.62944 -8.09519,-89.16666 24.2654,-29.77074 69.3673,-32.53749 98.57142,-8.45233 32.42211,26.7391 35.35146,76.10648 8.80947,107.97618 -25.90876,31.10937 -71.9897,37.70091 -106.38631,17.01677"
       transform="matrix(-1.0830998,0.95106174,-1.0534627,-0.97781801,1420.5916,741.73366)" />
    <path
       sodipodi:type="star"
       style="fill:#d97931;fill-opacity:1;stroke:#486f74;stroke-width:8;stroke-miterlimit:1;stroke-dasharray:none;stroke-opacity:1"
       id="path5707-2"
       sodipodi:sides="3"
       sodipodi:cx="322.85712"
       sodipodi:cy="283.79077"
       sodipodi:r1="38.597874"
       sodipodi:r2="19.298937"
       sodipodi:arg1="-1.6078164"
       sodipodi:arg2="-0.56061889"
       inkscape:flatsided="false"
       inkscape:rounded="0"
       inkscape:randomized="0"
       d="m 321.42855,245.21934 17.77334,28.30999 17.77335,28.30998 -33.40384,1.23718 -33.40383,1.23717 15.63049,-29.54716 z"
       inkscape:transform-center-x="15.516324"
       inkscape:transform-center-y="8.303992"
       transform="matrix(0.64022938,-1.9949773,2.5318765,0.50446499,-527.58894,867.0285)" />
    <path
       sodipodi:type="star"
       style="fill:#d97931;fill-opacity:1;stroke:#486f74;stroke-width:8;stroke-miterlimit:1;stroke-dasharray:none;stroke-opacity:1"
       id="path5707"
       sodipodi:sides="3"
       sodipodi:cx="322.85712"
       sodipodi:cy="283.79077"
       sodipodi:r1="38.597874"
       sodipodi:r2="19.298937"
       sodipodi:arg1="-1.6078164"
       sodipodi:arg2="-0.56061889"
       inkscape:flatsided="false"
       inkscape:rounded="0"
       inkscape:randomized="0"
       d="m 321.42855,245.21934 17.77334,28.30999 17.77335,28.30998 -33.40384,1.23718 -33.40383,1.23717 15.63049,-29.54716 z"
       inkscape:transform-center-x="-17.007289"
       inkscape:transform-center-y="7.0863215"
       transform="matrix(2.0535094,-1.2713503,1.613503,1.6180507,-857.23831,317.84763)" />
    <ellipse
       style="fill:#d97931;fill-opacity:1;stroke:#486f74;stroke-width:21.5341835;stroke-miterlimit:1;stroke-dasharray:none;stroke-opacity:1"
       id="path5153"
       cx="323.34213"
       cy="519.76782"
       rx="121.53126"
       ry="184.53033" />
    <rect
       style="fill:#000000;fill-opacity:1;stroke:#000000;stroke-width:18.54552841;stroke-miterlimit:1;stroke-dasharray:none;stroke-opacity:1"
       id="rect5724"
       width="55.962196"
       height="64.672791"
       x="293.49561"
       y="257.80316" />
    <ellipse
       style="fill:#000000;fill-opacity:1;stroke:#000000;stroke-width:18.54552841;stroke-miterlimit:1;stroke-dasharray:none;stroke-opacity:1"
       id="path5726"
       cx="279.74463"
       cy="431.21033"
       rx="3.730813"
       ry="23.517378" />
    <ellipse
       style="fill:#000000;fill-opacity:1;stroke:#000000;stroke-width:18.54552841;stroke-miterlimit:1;stroke-dasharray:none;stroke-opacity:1"
       id="path5726-2"
       cx="315.88052"
       cy="420.50949"
       rx="3.730813"
       ry="23.517378" />
    <path
       style="fill:none;fill-rule:evenodd;stroke:#26484d;stroke-width:9.72072792;stroke-linecap:butt;stroke-linejoin:miter;stroke-miterlimit:4;stroke-dasharray:none;stroke-opacity:1"
       d="m 297.41739,517.91743 c 0,5.454 0,10.908 0,16.36201 0,5.45399 0,10.90801 0,16.362 0,0.33069 -0.071,4.04666 0,4.0905 0.52088,0.32139 1.68899,-0.32138 2.20986,0 1.04175,0.64277 -1.04173,2.08425 0,2.72701 0.52088,0.32138 1.689,-0.32137 2.20986,0 0.52088,0.32138 0,0.90899 0,1.3635 1.47326,0 3.10203,-0.40652 4.41976,0 1.3177,0.40651 -1.04176,2.08424 0,2.727 0.52086,0.32137 1.68898,-0.32138 2.20986,0 0.52086,0.32137 -0.52088,1.04213 0,1.3635 0.52086,0.32138 1.68898,-0.32137 2.20986,0 0.52087,0.32138 -0.52088,1.04212 0,1.36351 0.52087,0.32138 1.55101,-0.20326 2.20987,0 1.86353,0.57489 2.55621,2.15209 4.41973,2.72699 0.65885,0.20326 1.51104,-0.14372 2.20986,0 3.12524,0.64277 5.71426,2.08425 8.83947,2.727 0.69882,0.14373 1.51106,-0.14373 2.20988,0 1.56259,0.32138 2.85711,1.04213 4.41972,1.36351 0.69883,0.14372 1.47326,0 2.20988,0 1.47325,0 2.94649,0 4.41973,0 0.73662,0 1.55101,0.20326 2.20986,0 9.19693,-2.83729 -2.36241,0.0941 2.20987,-2.72702 5.18254,-3.19764 0,4.20079 0,1.36351 0,-1.01629 1.68901,-1.76285 2.20987,-2.727 0.23294,-0.43117 -0.73663,-1.3635 0,-1.3635 1.56533,0 -3.13065,6.36301 0,-1.36349 0.39949,-0.98596 1.689,-1.76287 2.20986,-2.72701 0.57636,-1.06684 -0.92495,-2.727 0,-2.727 0.73662,0 0,1.81801 0,1.36351 0,-0.90901 0,-1.81802 0,-2.72701"
       id="path5789"
       inkscape:connector-curvature="0" />
    <path
       sodipodi:type="star"
       style="fill:#d97931;fill-opacity:1;stroke:#26484d;stroke-width:15;stroke-miterlimit:4;stroke-dasharray:none;stroke-opacity:1"
       id="path5787"
       sodipodi:sides="3"
       sodipodi:cx="260"
       sodipodi:cy="423.79077"
       sodipodi:r1="13.170778"
       sodipodi:r2="6.5853891"
       sodipodi:arg1="0.86217005"
       sodipodi:arg2="1.9093676"
       inkscape:flatsided="true"
       inkscape:rounded="0"
       inkscape:randomized="0"
       d="m 268.57143,433.79077 -21.5174,-7.57692 17.32051,-14.84615 z"
       inkscape:transform-center-x="-0.076621083"
       inkscape:transform-center-y="3.9825666"
       transform="matrix(0.94481246,0.80865133,-0.82516223,0.92590739,402.1163,-110.66716)" />
    <path
       style="fill:none;fill-rule:evenodd;stroke:#26484d;stroke-width:9.72072792;stroke-linecap:butt;stroke-linejoin:miter;stroke-miterlimit:4;stroke-dasharray:none;stroke-opacity:1"
       d="m 298.81592,515.61939 c 0,5.454 0,10.908 0,16.36201 0,5.454 0,10.90801 0,16.36201 0,0.33068 0.071,4.04666 0,4.0905 -0.52088,0.32138 -1.68899,-0.32139 -2.20986,0 -1.04176,0.64277 1.04173,2.08425 0,2.727 -0.52088,0.32139 -1.68901,-0.32137 -2.20987,0 -0.52087,0.32139 0,0.909 0,1.3635 -1.47325,0 -3.10203,-0.40652 -4.41975,0 -1.3177,0.40651 1.04175,2.08425 0,2.727 -0.52086,0.32138 -1.68898,-0.32138 -2.20986,0 -0.52086,0.32138 0.52088,1.04213 0,1.3635 -0.52086,0.32138 -1.68898,-0.32137 -2.20986,0 -0.52088,0.32138 0.52088,1.04212 0,1.36351 -0.52088,0.32138 -1.55101,-0.20326 -2.20988,0 -1.86352,0.57489 -2.55621,2.1521 -4.41972,2.72699 -0.65885,0.20326 -1.51104,-0.14372 -2.20986,0 -3.12524,0.64277 -5.71427,2.08425 -8.83947,2.72701 -0.69882,0.14373 -1.51106,-0.14373 -2.20988,0 -1.5626,0.32137 -2.85711,1.04212 -4.41972,1.36351 -0.69883,0.14371 -1.47326,0 -2.20988,0 -1.47325,0 -2.94649,0 -4.41974,0 -0.73662,0 -1.551,0.20325 -2.20986,0 -9.19693,-2.83729 2.36242,0.0941 -2.20986,-2.72702 -5.18254,-3.19765 0,4.20078 0,1.36351 0,-1.01629 -1.68901,-1.76285 -2.20987,-2.72701 -0.23294,-0.43116 0.73663,-1.36349 0,-1.36349 -1.56534,0 3.13064,6.363 0,-1.3635 -0.39949,-0.98595 -1.689,-1.76286 -2.20986,-2.72701 -0.57636,-1.06684 0.92495,-2.727 0,-2.727 -0.73663,0 0,1.81801 0,1.36351 0,-0.90901 0,-1.81801 0,-2.72701"
       id="path5789-0"
       inkscape:connector-curvature="0" />
    <rect
       style="fill:#d97931;fill-opacity:1;stroke:#000000;stroke-width:8;stroke-miterlimit:4;stroke-dasharray:none;stroke-opacity:1"
       id="rect5806"
       width="109.09647"
       height="8.0812206"
       x="264.65994"
       y="323.03207" />
  </g>
</svg>
