<?xml version="1.0" encoding="UTF-8" standalone="no"?>
<!-- Created with Inkscape (http://www.inkscape.org/) -->

<svg
   xmlns:dc="http://purl.org/dc/elements/1.1/"
   xmlns:cc="http://creativecommons.org/ns#"
   xmlns:rdf="http://www.w3.org/1999/02/22-rdf-syntax-ns#"
   xmlns:svg="http://www.w3.org/2000/svg"
   xmlns="http://www.w3.org/2000/svg"
   xmlns:sodipodi="http://sodipodi.sourceforge.net/DTD/sodipodi-0.dtd"
   xmlns:inkscape="http://www.inkscape.org/namespaces/inkscape"
   width="193.4856mm"
   height="91.057541mm"
   viewBox="0 0 685.57888 322.64483"
   id="svg7031"
   version="1.1"
   inkscape:version="0.91 r13725"
   sodipodi:docname="HomGeyser.svg"
   inkscape:export-filename="/Users/luna/Documents/LudumDare38/Assets/Project/Art/HomGeyser.png"
   inkscape:export-xdpi="90"
   inkscape:export-ydpi="90">
  <defs
     id="defs7033">
    <inkscape:path-effect
       effect="spiro"
       id="path-effect7639"
       is_visible="true" />
    <inkscape:path-effect
       effect="spiro"
       id="path-effect7095"
       is_visible="true" />
    <inkscape:path-effect
       effect="spiro"
       id="path-effect7639-6"
       is_visible="true" />
  </defs>
  <sodipodi:namedview
     id="base"
     pagecolor="#ffffff"
     bordercolor="#666666"
     borderopacity="1.0"
     inkscape:pageopacity="0.0"
     inkscape:pageshadow="2"
     inkscape:zoom="0.7"
     inkscape:cx="-110.4245"
     inkscape:cy="405.14485"
     inkscape:document-units="px"
     inkscape:current-layer="layer1"
     showgrid="false"
     inkscape:window-width="1863"
     inkscape:window-height="1155"
     inkscape:window-x="0"
     inkscape:window-y="1"
     inkscape:window-maximized="1"
     fit-margin-top="0"
     fit-margin-left="0"
     fit-margin-right="0"
     fit-margin-bottom="0" />
  <metadata
     id="metadata7036">
    <rdf:RDF>
      <cc:Work
         rdf:about="">
        <dc:format>image/svg+xml</dc:format>
        <dc:type
           rdf:resource="http://purl.org/dc/dcmitype/StillImage" />
        <dc:title />
      </cc:Work>
    </rdf:RDF>
  </metadata>
  <g
     inkscape:label="Layer 1"
     inkscape:groupmode="layer"
     id="layer1"
     transform="translate(-29.71021,-614.86222)">
    <g
       id="g7931"
       style="fill:#cd87de">
      <path
         transform="matrix(-0.96902852,0.03249532,-0.0127043,-1.6164165,673.1465,1478.2753)"
         inkscape:transform-center-y="703.88392"
         inkscape:transform-center-x="-53.935045"
         d="M 72.857139,456.64792 5.7179658,335.41074 144.28203,337.8851 Z"
         inkscape:randomized="0"
         inkscape:rounded="0"
         inkscape:flatsided="true"
         sodipodi:arg2="2.6358491"
         sodipodi:arg1="1.5886516"
         sodipodi:r2="40.006378"
         sodipodi:r1="80.012756"
         sodipodi:cy="376.64792"
         sodipodi:cx="74.285713"
         sodipodi:sides="3"
         id="path7872-2"
         style="fill:#cd87de;fill-opacity:1;stroke:#6a3327;stroke-width:0;stroke-linecap:round;stroke-miterlimit:4;stroke-dasharray:none;stroke-opacity:1"
         sodipodi:type="star" />
      <path
         transform="matrix(0.76654932,0,0,0.43825383,544.42398,537.46222)"
         inkscape:transform-center-y="-6.2607838"
         inkscape:transform-center-x="0.64581557"
         d="m 85.714284,908.07649 54.542136,-88.63277 49.48716,91.55126 z"
         inkscape:randomized="0"
         inkscape:rounded="0"
         inkscape:flatsided="true"
         sodipodi:arg2="3.6932385"
         sodipodi:arg1="2.646041"
         sodipodi:r2="30.042486"
         sodipodi:r1="60.084972"
         sodipodi:cy="879.50507"
         sodipodi:cx="138.57143"
         sodipodi:sides="3"
         id="path7868-9"
         style="fill:#cd87de;fill-opacity:1;stroke:#6a3327;stroke-width:0;stroke-linecap:round;stroke-miterlimit:4;stroke-dasharray:none;stroke-opacity:1"
         sodipodi:type="star" />
      <path
         transform="matrix(-0.96879527,0.03883226,-0.02327571,-1.6162988,223.69763,1474.9489)"
         inkscape:transform-center-y="703.73388"
         inkscape:transform-center-x="-59.171136"
         d="M 72.857139,456.64792 5.7179658,335.41074 144.28203,337.8851 Z"
         inkscape:randomized="0"
         inkscape:rounded="0"
         inkscape:flatsided="true"
         sodipodi:arg2="2.6358491"
         sodipodi:arg1="1.5886516"
         sodipodi:r2="40.006378"
         sodipodi:r1="80.012756"
         sodipodi:cy="376.64792"
         sodipodi:cx="74.285713"
         sodipodi:sides="3"
         id="path7872"
         style="fill:#cd87de;fill-opacity:1;stroke:#6a3327;stroke-width:0;stroke-linecap:round;stroke-miterlimit:4;stroke-dasharray:none;stroke-opacity:1"
         sodipodi:type="star" />
      <path
         transform="matrix(0.76557257,-0.03868465,0.02132943,0.42211122,-45.471078,556.65453)"
         inkscape:transform-center-y="-5.6563529"
         inkscape:transform-center-x="0.0044524799"
         d="m 85.714284,908.07649 54.542136,-88.63277 49.48716,91.55126 z"
         inkscape:randomized="0"
         inkscape:rounded="0"
         inkscape:flatsided="true"
         sodipodi:arg2="3.6932385"
         sodipodi:arg1="2.646041"
         sodipodi:r2="30.042486"
         sodipodi:r1="60.084972"
         sodipodi:cy="879.50507"
         sodipodi:cx="138.57143"
         sodipodi:sides="3"
         id="path7868"
         style="fill:#cd87de;fill-opacity:1;stroke:#6a3327;stroke-width:0;stroke-linecap:round;stroke-miterlimit:4;stroke-dasharray:none;stroke-opacity:1"
         sodipodi:type="star" />
      <path
         transform="matrix(2.1673702,0,0,1.1360818,-468.36757,-149.745)"
         d="m 491.42857,956.64793 -211.42858,-2.85714 2.85714,-211.42859 211.42859,2.85715 z"
         inkscape:randomized="0"
         inkscape:rounded="0"
         inkscape:flatsided="true"
         sodipodi:arg2="1.584309"
         sodipodi:arg1="0.79891085"
         sodipodi:r2="105.72394"
         sodipodi:r1="149.51624"
         sodipodi:cy="849.50507"
         sodipodi:cx="387.14285"
         sodipodi:sides="4"
         id="path7866"
         style="fill:#cd87de;fill-opacity:1;stroke:#6a3327;stroke-width:0;stroke-linecap:round;stroke-miterlimit:4;stroke-dasharray:none;stroke-opacity:1"
         sodipodi:type="star" />
    </g>
    <ellipse
       style="fill:#37abc8;fill-opacity:1;stroke:#502d16;stroke-width:25.46957207;stroke-linecap:round;stroke-miterlimit:4;stroke-dasharray:none;stroke-opacity:1"
       id="path7039"
       cx="372.85718"
       cy="670.21936"
       rx="220.47951"
       ry="42.622356" />
    <path
       style="fill:none;fill-rule:evenodd;stroke:#502d16;stroke-width:25.61185837;stroke-linecap:butt;stroke-linejoin:miter;stroke-miterlimit:4;stroke-dasharray:none;stroke-opacity:1"
       d="m 593.00834,673.67362 c 2.52086,22.03507 4.89534,44.08688 7.12322,66.15349 3.40077,33.68377 6.55249,67.82666 18.06222,99.66511 5.75487,15.91923 13.60894,31.16859 24.11976,44.43747 10.51081,13.26888 23.74043,24.52586 39.02266,31.80555 10.28047,4.8971 21.42848,7.96623 32.76679,9.02093"
       id="path7637"
       inkscape:path-effect="#path-effect7639"
       inkscape:original-d="m 593.00834,673.67362 c 7.1177,17.13467 2.94588,50.72363 7.12322,66.15349 15.16846,56.0278 19.86729,154.3308 81.20464,175.90813 10.62572,3.73794 21.4743,9.02093 32.76679,9.02093"
       inkscape:connector-curvature="0" />
    <path
       style="fill:none;fill-rule:evenodd;stroke:#502d16;stroke-width:25.40977669;stroke-linecap:butt;stroke-linejoin:miter;stroke-miterlimit:4;stroke-dasharray:none;stroke-opacity:1"
       d="m 152.02334,676.03715 c -2.46569,21.67492 -4.84229,43.35998 -7.12971,65.05444 -3.50137,33.20781 -6.88883,66.85888 -18.49383,98.1693 -5.8025,15.6552 -13.66743,30.63239 -24.12352,43.64872 -10.456093,13.01632 -23.562651,24.04114 -38.661247,31.16763 -10.295139,4.85928 -21.455718,7.87807 -32.796635,8.87107"
       id="path7637-2"
       inkscape:path-effect="#path-effect7639-6"
       inkscape:original-d="m 152.02334,676.03715 c -7.12419,16.85 -2.94856,49.88093 -7.12971,65.05444 -15.18227,55.09697 -19.88539,151.7668 -81.278597,172.98565 -10.635396,3.67584 -21.49386,8.87107 -32.796635,8.87107"
       inkscape:connector-curvature="0" />
    <path
       style="fill:#a0a0a0;stroke:none;stroke-width:1px;stroke-linecap:butt;stroke-linejoin:miter;stroke-opacity:1"
       d="m 14.28979,320.12215 c 1.571428,-0.67628 7.496647,-2.6453 13.167152,-4.37558 16.654198,-5.08185 30.765016,-14.2189 46.118562,-29.86276 15.209621,-15.49722 24.237428,-29.35322 33.015986,-50.67339 10.66649,-25.90532 16.13474,-53.97752 22.92551,-117.69205 1.78263,-16.72559 3.6431,-31.060534 4.13437,-31.855422 0.56803,-0.919099 3.46783,-0.43043 7.96526,1.34229 10.49609,4.137174 40.23626,11.228818 60.5303,14.433662 106.60835,16.83561 265.53273,11.11732 335,-12.053696 7.85715,-2.620774 14.66935,-4.342084 15.13823,-3.825134 0.46889,0.516951 1.62914,8.975624 2.57834,18.79705 4.09043,42.32353 7.63729,70.46096 10.98476,87.14286 12.03519,59.97646 37.94664,99.76134 78.21134,120.08703 7.09899,3.58358 13.19025,7.36458 13.53613,8.40223 0.52043,1.56127 -36.29631,1.66944 -213.48138,0.62725 -252.31157,-1.48407 -388.420022,-1.55877 -414.110275,-0.22727 -10.688825,0.55399 -17.35872,0.44063 -15.714285,-0.26707 z"
       id="path3345"
       inkscape:connector-curvature="0"
       transform="translate(29.71021,614.86222)" />
    <path
       style="fill:#a0a0a0;stroke:none;stroke-width:1px;stroke-linecap:butt;stroke-linejoin:miter;stroke-opacity:1"
       d="m 357.14693,319.76777 c -107.64285,-0.68965 -228.17857,-0.9601 -267.85714,-0.601 l -72.142858,0.6529 9.285715,-3.23559 c 14.000393,-4.8784 22.89798,-9.81806 34.494688,-19.15037 22.380316,-18.01027 38.54053,-41.11426 48.867575,-69.86512 8.29139,-23.08352 12.48291,-45.5381 19.51695,-104.555 2.38241,-19.98895 4.63334,-36.64521 5.00205,-37.013924 0.36872,-0.368713 6.29984,1.047111 13.18028,3.146277 43.88207,13.388067 99.08887,20.302567 174.65274,21.874787 88.28503,1.83691 164.35306,-5.82013 216.82813,-21.826009 6.58664,-2.009047 12.32123,-3.307295 12.74353,-2.884996 0.42229,0.4223 2.59129,17.352155 4.81997,37.621895 2.2287,20.26974 4.73979,41.64425 5.5802,47.4989 7.48783,52.16303 25.04144,92.8445 51.0242,118.2514 8.34037,8.15553 18.54604,15.37625 34.00397,24.0585 l 10,5.6167 -14.28571,0.90363 c -17.63087,1.11523 -40.98654,1.07493 -285.71429,-0.49298 z"
       id="path3347"
       inkscape:connector-curvature="0"
       transform="translate(29.71021,614.86222)" />
    <path
       style="fill:#a0a0a0;stroke:none;stroke-width:1px;stroke-linecap:butt;stroke-linejoin:miter;stroke-opacity:1"
       d="m 322.14693,319.87311 c -103.32143,-0.61109 -214.21428,-0.808 -246.428569,-0.4376 l -58.571429,0.67347 12.708468,-5.04767 c 40.403347,-16.04776 71.0677,-53.33977 84.37663,-102.61343 4.9792,-18.43449 8.55998,-39.87562 14.33399,-85.82963 2.75607,-21.93495 5.30394,-40.174635 5.66194,-40.532632 0.358,-0.357997 6.62551,1.023567 13.9278,3.070141 50.30029,14.097391 100.35516,20.043891 181.13403,21.518641 81.81787,1.49373 152.70869,-5.64031 206.1925,-20.749996 8.51303,-2.40501 15.85154,-3.999422 16.30783,-3.54314 0.45628,0.456283 2.3025,14.169656 4.1027,30.474156 8.50086,76.99281 14.13373,102.07345 30.0794,133.93027 13.22284,26.41703 29.39683,43.66318 55.60006,59.28572 l 15.57465,9.28571 -9.28571,0.90446 c -11.52092,1.12216 -85.14726,1.03434 -325.71429,-0.38847 z"
       id="path3349"
       inkscape:connector-curvature="0"
       transform="translate(29.71021,614.86222)" />
    <path
       style="fill:#502d16;fill-opacity:1;stroke:none;stroke-width:1px;stroke-linecap:butt;stroke-linejoin:miter;stroke-opacity:1"
       d="m 506.75704,932.82443 c -0.37852,-0.37434 -104.49736,-0.79947 -231.37518,-0.94473 -126.87782,-0.14525 -230.520965,-0.41783 -230.318083,-0.60574 0.202881,-0.1879 5.769961,-2.3955 12.371287,-4.90579 29.704662,-11.29577 57.153736,-37.97577 72.584166,-70.5505 12.29369,-25.95284 17.55808,-48.89333 25.90631,-112.89125 3.16755,-24.28254 6.08572,-44.47302 6.48484,-44.86772 0.39912,-0.39471 8.36971,1.31252 17.71242,3.79385 53.89851,14.31487 92.97459,18.69169 176.80545,19.80357 93.57456,1.24112 147.9775,-3.61513 204.73504,-18.27557 12.20852,-3.15345 22.50303,-5.43124 22.87666,-5.06174 0.69427,0.6866 1.76369,8.63107 8.37308,62.20269 5.93696,48.12118 11.76638,71.87078 23.74541,96.74093 15.31007,31.78589 30.35483,48.03003 61.51893,66.42332 l 12.96549,7.65232 -7.94498,0.94222 c -9.04826,1.07304 -175.38729,1.58604 -176.44084,0.54414 z"
       id="path3351"
       inkscape:connector-curvature="0" />
  </g>
</svg>
