<?xml version="1.0" encoding="UTF-8" standalone="no"?>
<!-- Created with Inkscape (http://www.inkscape.org/) -->

<svg
   xmlns:dc="http://purl.org/dc/elements/1.1/"
   xmlns:cc="http://creativecommons.org/ns#"
   xmlns:rdf="http://www.w3.org/1999/02/22-rdf-syntax-ns#"
   xmlns:svg="http://www.w3.org/2000/svg"
   xmlns="http://www.w3.org/2000/svg"
   xmlns:sodipodi="http://sodipodi.sourceforge.net/DTD/sodipodi-0.dtd"
   xmlns:inkscape="http://www.inkscape.org/namespaces/inkscape"
   width="128mm"
   height="128mm"
   viewBox="0 0 453.54325 453.54331"
   id="svg5460"
   version="1.1"
   inkscape:version="0.91 r13725"
   sodipodi:docname="Cloud Particle.svg"
   inkscape:export-filename="/Users/luna/Documents/LudumDare38/Assets/Project/Art/Būg/Raincloud.png"
   inkscape:export-xdpi="90"
   inkscape:export-ydpi="90">
  <defs
     id="defs5462" />
  <sodipodi:namedview
     id="base"
     pagecolor="#ffffff"
     bordercolor="#666666"
     borderopacity="1.0"
     inkscape:pageopacity="0.0"
     inkscape:pageshadow="2"
     inkscape:zoom="0.7"
     inkscape:cx="-136.55977"
     inkscape:cy="-37.143963"
     inkscape:document-units="px"
     inkscape:current-layer="layer1"
     showgrid="false"
     fit-margin-top="0"
     fit-margin-left="0"
     fit-margin-right="0"
     fit-margin-bottom="0"
     inkscape:window-width="1863"
     inkscape:window-height="1155"
     inkscape:window-x="0"
     inkscape:window-y="1"
     inkscape:window-maximized="1" />
  <metadata
     id="metadata5465">
    <rdf:RDF>
      <cc:Work
         rdf:about="">
        <dc:format>image/svg+xml</dc:format>
        <dc:type
           rdf:resource="http://purl.org/dc/dcmitype/StillImage" />
        <dc:title></dc:title>
      </cc:Work>
    </rdf:RDF>
  </metadata>
  <g
     inkscape:label="Layer 1"
     inkscape:groupmode="layer"
     id="layer1"
     transform="translate(-140.71458,137.61023)">
    <path
       style="opacity:1;fill:#ffffff;fill-opacity:1;fill-rule:nonzero;stroke:#808080;stroke-width:24.74179268;stroke-linecap:butt;stroke-linejoin:round;stroke-miterlimit:1;stroke-dasharray:none;stroke-dashoffset:0;stroke-opacity:1"
       d="M 404.74353,-120.51939 A 100.4422,133.02425 7.8135804 0 0 302.0032,-49.770491 90.252995,126.58677 7.7023238 0 0 263.05623,-68.576972 90.252995,126.58677 7.7023238 0 0 157.35556,46.089881 a 90.252995,126.58677 7.7023238 0 0 42.59325,124.136079 92.436232,125.51442 7.7598935 0 0 77.1451,115.18002 92.436232,125.51442 7.7598935 0 0 91.57698,-60.41627 108.44848,143.75198 7.811555 0 0 82.38512,77.23596 A 108.44848,143.75198 7.811555 0 0 577.0048,172.72788 108.44848,143.75198 7.811555 0 0 488.17767,17.169232 100.4422,133.02425 7.8135804 0 0 404.74353,-120.51939 Z"
       id="path6372"
       inkscape:connector-curvature="0" />
  </g>
</svg>
