<?xml version="1.0" encoding="UTF-8" standalone="no"?>
<!-- Created with Inkscape (http://www.inkscape.org/) -->

<svg
   xmlns:dc="http://purl.org/dc/elements/1.1/"
   xmlns:cc="http://creativecommons.org/ns#"
   xmlns:rdf="http://www.w3.org/1999/02/22-rdf-syntax-ns#"
   xmlns:svg="http://www.w3.org/2000/svg"
   xmlns="http://www.w3.org/2000/svg"
   xmlns:sodipodi="http://sodipodi.sourceforge.net/DTD/sodipodi-0.dtd"
   xmlns:inkscape="http://www.inkscape.org/namespaces/inkscape"
   width="81.078011mm"
   height="144.57947mm"
   viewBox="0 0 287.28429 512.28945"
   id="svg7332"
   version="1.1"
   inkscape:version="0.91 r13725"
   sodipodi:docname="Flower 1.svg"
   inkscape:export-filename="/Users/luna/Documents/LudumDare38/Assets/Project/Art/Būg/Flower 1.png"
   inkscape:export-xdpi="90"
   inkscape:export-ydpi="90">
  <defs
     id="defs7334" />
  <sodipodi:namedview
     id="base"
     pagecolor="#ffffff"
     bordercolor="#666666"
     borderopacity="1.0"
     inkscape:pageopacity="0.0"
     inkscape:pageshadow="2"
     inkscape:zoom="0.7"
     inkscape:cx="-60.643576"
     inkscape:cy="56.14472"
     inkscape:document-units="px"
     inkscape:current-layer="layer1"
     showgrid="false"
     fit-margin-top="0"
     fit-margin-left="0"
     fit-margin-right="0"
     fit-margin-bottom="0"
     inkscape:window-width="1863"
     inkscape:window-height="1155"
     inkscape:window-x="0"
     inkscape:window-y="1"
     inkscape:window-maximized="1" />
  <metadata
     id="metadata7337">
    <rdf:RDF>
      <cc:Work
         rdf:about="">
        <dc:format>image/svg+xml</dc:format>
        <dc:type
           rdf:resource="http://purl.org/dc/dcmitype/StillImage" />
        <dc:title></dc:title>
      </cc:Work>
    </rdf:RDF>
  </metadata>
  <g
     inkscape:label="Layer 1"
     inkscape:groupmode="layer"
     id="layer1"
     transform="translate(-203.50072,-76.217483)">
    <g
       transform="translate(-19.974423,-57.290167)"
       id="g7094"
       inkscape:export-xdpi="90"
       inkscape:export-ydpi="90">
      <rect
         y="307.49606"
         x="359.63745"
         height="335.44659"
         width="13.582232"
         id="rect5879-2-2"
         style="fill:#568d60;fill-opacity:1;stroke:#1f592a;stroke-width:5.7088685;stroke-linecap:square;stroke-miterlimit:4;stroke-dasharray:none;stroke-opacity:1" />
      <g
         transform="matrix(0.9584042,0.2854144,-0.2854144,0.9584042,95.996498,-93.037296)"
         id="g7046">
        <path
           style="fill:#f2ff43;fill-opacity:1;stroke:#37acbe;stroke-width:8.95925331;stroke-linecap:square;stroke-miterlimit:4;stroke-dasharray:none;stroke-opacity:1"
           id="path6380-0-4"
           sodipodi:type="arc"
           sodipodi:cx="93.310638"
           sodipodi:cy="-533.67139"
           sodipodi:rx="17.1304"
           sodipodi:ry="69.10537"
           sodipodi:start="2.1026746"
           sodipodi:end="1.0209811"
           d="m 84.622904,-474.11251 a 17.1304,69.10537 0 0 1 -7.860487,-77.42167 17.1304,69.10537 0 0 1 16.39459,-51.2398 17.1304,69.10537 0 0 1 16.619773,50.04533 17.1304,69.10537 0 0 1 -7.515,77.97796"
           sodipodi:open="true"
           transform="matrix(0.76143716,-0.64823873,-0.64823873,-0.76143716,0,0)" />
        <path
           style="fill:#f2ff43;fill-opacity:1;stroke:#37acbe;stroke-width:8.95925331;stroke-linecap:square;stroke-miterlimit:4;stroke-dasharray:none;stroke-opacity:1"
           id="path6380-0-3"
           sodipodi:type="arc"
           sodipodi:cx="-93.360664"
           sodipodi:cy="368.78073"
           sodipodi:rx="17.1304"
           sodipodi:ry="69.10537"
           sodipodi:start="2.1026746"
           sodipodi:end="1.0209811"
           d="m -102.0484,428.33961 a 17.1304,69.10537 0 0 1 -7.86049,-77.42167 17.1304,69.10537 0 0 1 16.394594,-51.2398 17.1304,69.10537 0 0 1 16.619771,50.04533 17.1304,69.10537 0 0 1 -7.514997,77.97796"
           sodipodi:open="true"
           transform="matrix(-0.76143716,0.64823873,0.64823873,0.76143716,0,0)" />
        <path
           style="fill:#f2ff43;fill-opacity:1;stroke:#37acbe;stroke-width:8.95925331;stroke-linecap:square;stroke-miterlimit:4;stroke-dasharray:none;stroke-opacity:1"
           id="path6380-0"
           sodipodi:type="arc"
           sodipodi:cx="461.39691"
           sodipodi:cy="-107.09972"
           sodipodi:rx="17.1304"
           sodipodi:ry="69.10537"
           sodipodi:start="2.1026746"
           sodipodi:end="1.0209811"
           d="m 452.70918,-47.540837 a 17.1304,69.10537 0 0 1 -7.86049,-77.421673 17.1304,69.10537 0 0 1 16.39459,-51.2398 17.1304,69.10537 0 0 1 16.61977,50.04533 17.1304,69.10537 0 0 1 -7.515,77.977959"
           sodipodi:open="true"
           transform="matrix(0.76143716,0.64823873,-0.64823873,0.76143716,0,0)" />
        <path
           style="fill:#f2ff43;fill-opacity:1;stroke:#37acbe;stroke-width:8.95925331;stroke-linecap:square;stroke-miterlimit:4;stroke-dasharray:none;stroke-opacity:1"
           id="path6380"
           sodipodi:type="arc"
           sodipodi:cx="365"
           sodipodi:cy="201.65683"
           sodipodi:rx="17.1304"
           sodipodi:ry="69.10537"
           sodipodi:start="2.1026746"
           sodipodi:end="1.0209811"
           d="m 356.31227,261.21571 a 17.1304,69.10537 0 0 1 -7.86049,-77.42167 17.1304,69.10537 0 0 1 16.39459,-51.2398 17.1304,69.10537 0 0 1 16.61977,50.04532 17.1304,69.10537 0 0 1 -7.515,77.97797"
           sodipodi:open="true" />
        <path
           style="fill:#f2ff43;fill-opacity:1;stroke:#37acbe;stroke-width:8.95925331;stroke-linecap:square;stroke-miterlimit:4;stroke-dasharray:none;stroke-opacity:1"
           id="path6380-4"
           sodipodi:type="arc"
           sodipodi:cx="277.28934"
           sodipodi:cy="-446.28769"
           sodipodi:rx="17.1304"
           sodipodi:ry="69.10537"
           sodipodi:start="2.1026746"
           sodipodi:end="1.0209811"
           d="m 268.6016,-386.72881 a 17.1304,69.10537 0 0 1 -7.86048,-77.42167 17.1304,69.10537 0 0 1 16.39459,-51.2398 17.1304,69.10537 0 0 1 16.61977,50.04532 17.1304,69.10537 0 0 1 -7.515,77.97797"
           sodipodi:open="true"
           transform="matrix(-0.01140102,0.99993501,-0.99993501,-0.01140102,0,0)" />
        <path
           style="fill:#f2ff43;fill-opacity:1;stroke:#37acbe;stroke-width:8.95925331;stroke-linecap:square;stroke-miterlimit:4;stroke-dasharray:none;stroke-opacity:1"
           id="path6380-4-0"
           sodipodi:type="arc"
           sodipodi:cx="285.67242"
           sodipodi:cy="288.04721"
           sodipodi:rx="17.1304"
           sodipodi:ry="69.10537"
           sodipodi:start="2.1026746"
           sodipodi:end="1.0209811"
           d="m 276.98469,347.60609 a 17.1304,69.10537 0 0 1 -7.86049,-77.42167 17.1304,69.10537 0 0 1 16.39459,-51.2398 17.1304,69.10537 0 0 1 16.61977,50.04532 17.1304,69.10537 0 0 1 -7.51499,77.97797"
           sodipodi:open="true"
           transform="matrix(0.01140102,0.99993501,0.99993501,-0.01140102,0,0)" />
        <path
           style="fill:#f2ff43;fill-opacity:1;stroke:#37acbe;stroke-width:8.95925331;stroke-linecap:square;stroke-miterlimit:4;stroke-dasharray:none;stroke-opacity:1"
           id="path6380-0-4-0"
           sodipodi:type="arc"
           sodipodi:cx="-458.67252"
           sodipodi:cy="-58.11985"
           sodipodi:rx="17.1304"
           sodipodi:ry="69.10537"
           sodipodi:start="2.1026746"
           sodipodi:end="1.0209811"
           d="m -467.36025,1.4390286 a 17.1304,69.10537 0 0 1 -7.86049,-77.4216686 17.1304,69.10537 0 0 1 16.39459,-51.2398 17.1304,69.10537 0 0 1 16.61977,50.045324 17.1304,69.10537 0 0 1 -7.51499,77.9779611"
           sodipodi:open="true"
           transform="matrix(-0.76143716,-0.64823873,0.64823873,-0.76143716,0,0)" />
        <path
           style="fill:#f2ff43;fill-opacity:1;stroke:#37acbe;stroke-width:8.95925331;stroke-linecap:square;stroke-miterlimit:4;stroke-dasharray:none;stroke-opacity:1"
           id="path6380-91"
           sodipodi:type="arc"
           sodipodi:cx="364.28549"
           sodipodi:cy="-363.99704"
           sodipodi:rx="17.1304"
           sodipodi:ry="69.10537"
           sodipodi:start="2.1026746"
           sodipodi:end="1.0209811"
           d="m 355.59776,-304.43816 a 17.1304,69.10537 0 0 1 -7.86049,-77.42167 17.1304,69.10537 0 0 1 16.39459,-51.2398 17.1304,69.10537 0 0 1 16.61977,50.04532 17.1304,69.10537 0 0 1 -7.515,77.97797"
           sodipodi:open="true"
           transform="scale(1,-1)" />
        <ellipse
           style="fill:#ff8b1d;fill-opacity:1;stroke:#c27730;stroke-width:8;stroke-linecap:square;stroke-miterlimit:4;stroke-dasharray:none;stroke-opacity:1"
           id="path6378"
           cx="366.42856"
           cy="282.36221"
           rx="19.285715"
           ry="21.428572" />
      </g>
      <ellipse
         transform="matrix(0.814259,0.58050174,-0.58050174,0.814259,0,0)"
         ry="25.714285"
         rx="10.714286"
         cy="177.58971"
         cx="606.44757"
         id="path7077"
         style="fill:#568d60;fill-opacity:1;stroke:#1f592a;stroke-width:8;stroke-linecap:square;stroke-miterlimit:4;stroke-dasharray:none;stroke-opacity:1" />
      <ellipse
         transform="matrix(-0.814259,0.58050174,0.58050174,0.814259,0,0)"
         ry="25.714285"
         rx="10.714286"
         cy="635.50421"
         cx="35.506283"
         id="path7077-0"
         style="fill:#568d60;fill-opacity:1;stroke:#1f592a;stroke-width:8;stroke-linecap:square;stroke-miterlimit:4;stroke-dasharray:none;stroke-opacity:1" />
    </g>
  </g>
</svg>
