<?xml version="1.0" encoding="UTF-8" standalone="no"?>
<!-- Created with Inkscape (http://www.inkscape.org/) -->

<svg
   xmlns:dc="http://purl.org/dc/elements/1.1/"
   xmlns:cc="http://creativecommons.org/ns#"
   xmlns:rdf="http://www.w3.org/1999/02/22-rdf-syntax-ns#"
   xmlns:svg="http://www.w3.org/2000/svg"
   xmlns="http://www.w3.org/2000/svg"
   xmlns:sodipodi="http://sodipodi.sourceforge.net/DTD/sodipodi-0.dtd"
   xmlns:inkscape="http://www.inkscape.org/namespaces/inkscape"
   width="195.03821mm"
   height="241.30331mm"
   viewBox="0 0 691.08026 855.01174"
   id="svg7803"
   version="1.1"
   inkscape:version="0.91 r13725"
   sodipodi:docname="Forest of Rain.svg"
   inkscape:export-filename="/Users/luna/Documents/LudumDare38/Assets/Project/Art/Būg/Forest of Rain.png"
   inkscape:export-xdpi="90"
   inkscape:export-ydpi="90">
  <defs
     id="defs7805" />
  <sodipodi:namedview
     id="base"
     pagecolor="#ffffff"
     bordercolor="#666666"
     borderopacity="1.0"
     inkscape:pageopacity="0.0"
     inkscape:pageshadow="2"
     inkscape:zoom="0.7"
     inkscape:cx="184.24939"
     inkscape:cy="281.66839"
     inkscape:document-units="px"
     inkscape:current-layer="layer1"
     showgrid="false"
     inkscape:window-width="1863"
     inkscape:window-height="1155"
     inkscape:window-x="0"
     inkscape:window-y="1"
     inkscape:window-maximized="1"
     fit-margin-top="0"
     fit-margin-left="0"
     fit-margin-right="0"
     fit-margin-bottom="0" />
  <metadata
     id="metadata7808">
    <rdf:RDF>
      <cc:Work
         rdf:about="">
        <dc:format>image/svg+xml</dc:format>
        <dc:type
           rdf:resource="http://purl.org/dc/dcmitype/StillImage" />
        <dc:title></dc:title>
      </cc:Work>
    </rdf:RDF>
  </metadata>
  <g
     inkscape:label="Layer 1"
     inkscape:groupmode="layer"
     id="layer1"
     transform="translate(-15.000283,-16.161684)">
    <g
       id="g8427">
      <rect
         y="265.13065"
         x="197.61734"
         height="571.9082"
         width="16.193861"
         id="rect6383"
         style="opacity:1;fill:#784625;fill-opacity:1;fill-rule:nonzero;stroke:#642f5a;stroke-width:0;stroke-linecap:butt;stroke-linejoin:round;stroke-miterlimit:1;stroke-dasharray:none;stroke-dashoffset:0;stroke-opacity:1" />
      <path
         inkscape:connector-curvature="0"
         id="path6372"
         d="M 199.14043,61.290432 A 78.824347,74.718468 0 0 0 126.2333,107.70301 70.827674,71.103059 0 0 0 94.040439,99.855273 70.827674,71.103059 0 0 0 23.213661,170.95786 a 70.827674,71.103059 0 0 0 45.546668,66.3343 72.54125,70.50049 0 0 0 71.546811,58.99896 72.54125,70.50049 0 0 0 65.24942,-39.89449 85.107448,80.744154 0 0 0 71.83731,37.48563 85.107448,80.744154 0 0 0 85.10675,-80.74462 85.107448,80.744154 0 0 0 -84.67101,-80.72321 78.824347,74.718468 0 0 0 -78.68918,-71.123998 z"
         style="opacity:1;fill:#ffffff;fill-opacity:1;fill-rule:nonzero;stroke:#578ba9;stroke-width:16.42675591;stroke-linecap:butt;stroke-linejoin:round;stroke-miterlimit:1;stroke-dasharray:none;stroke-dashoffset:0;stroke-opacity:1" />
    </g>
    <g
       id="g8423"
       transform="translate(-68.571429,1.4285714)">
      <rect
         y="297.83667"
         x="409.04593"
         height="571.9082"
         width="16.193861"
         id="rect6383-8"
         style="opacity:1;fill:#784625;fill-opacity:1;fill-rule:nonzero;stroke:#642f5a;stroke-width:0;stroke-linecap:butt;stroke-linejoin:round;stroke-miterlimit:1;stroke-dasharray:none;stroke-dashoffset:0;stroke-opacity:1" />
      <path
         inkscape:connector-curvature="0"
         id="path6372-5"
         d="m 420.29437,122.27734 a 84.339813,74.545102 0 0 0 -78.00856,46.30489 75.7836,70.938081 0 0 0 -34.44546,-7.82953 75.7836,70.938081 0 0 0 -75.78263,70.93761 75.7836,70.938081 0 0 0 48.73363,66.18039 77.617077,70.33691 0 0 0 76.55307,58.86207 77.617077,70.33691 0 0 0 69.81503,-39.80193 91.062552,80.556806 0 0 0 76.86388,37.39866 91.062552,80.556806 0 0 0 91.0618,-80.55727 91.062552,80.556806 0 0 0 -90.59557,-80.53591 84.339813,74.545102 0 0 0 -84.19519,-70.95898 z"
         style="opacity:1;fill:#ffffff;fill-opacity:1;fill-rule:nonzero;stroke:#578ba9;stroke-width:16.9720192;stroke-linecap:butt;stroke-linejoin:round;stroke-miterlimit:1;stroke-dasharray:none;stroke-dashoffset:0;stroke-opacity:1" />
    </g>
    <g
       id="g8419"
       transform="matrix(1.18614,0,0,1.0671116,-158.10685,-34.251417)">
      <rect
         y="231.28792"
         x="534.04596"
         height="571.9082"
         width="16.193861"
         id="rect6383-8-4"
         style="opacity:1;fill:#784625;fill-opacity:1;fill-rule:nonzero;stroke:#642f5a;stroke-width:0;stroke-linecap:butt;stroke-linejoin:round;stroke-miterlimit:1;stroke-dasharray:none;stroke-dashoffset:0;stroke-opacity:1" />
      <path
         inkscape:connector-curvature="0"
         id="path6372-5-7"
         d="m 545.29438,55.728586 a 84.339813,74.545102 0 0 0 -78.00856,46.304894 75.7836,70.938081 0 0 0 -34.44546,-7.829534 75.7836,70.938081 0 0 0 -75.78263,70.937604 75.7836,70.938081 0 0 0 48.73363,66.18039 77.617077,70.33691 0 0 0 76.55307,58.86207 77.617077,70.33691 0 0 0 69.81503,-39.80193 91.062552,80.556806 0 0 0 76.86388,37.39866 91.062552,80.556806 0 0 0 91.0618,-80.55727 91.062552,80.556806 0 0 0 -90.59557,-80.53591 84.339813,74.545102 0 0 0 -84.19519,-70.958974 z"
         style="opacity:1;fill:#ffffff;fill-opacity:1;fill-rule:nonzero;stroke:#578ba9;stroke-width:16.9720192;stroke-linecap:butt;stroke-linejoin:round;stroke-miterlimit:1;stroke-dasharray:none;stroke-dashoffset:0;stroke-opacity:1" />
    </g>
  </g>
</svg>
