<?xml version="1.0" encoding="UTF-8" standalone="no"?>
<!-- Created with Inkscape (http://www.inkscape.org/) -->

<svg
   xmlns:dc="http://purl.org/dc/elements/1.1/"
   xmlns:cc="http://creativecommons.org/ns#"
   xmlns:rdf="http://www.w3.org/1999/02/22-rdf-syntax-ns#"
   xmlns:svg="http://www.w3.org/2000/svg"
   xmlns="http://www.w3.org/2000/svg"
   xmlns:sodipodi="http://sodipodi.sourceforge.net/DTD/sodipodi-0.dtd"
   xmlns:inkscape="http://www.inkscape.org/namespaces/inkscape"
   width="118.28522mm"
   height="149.77576mm"
   viewBox="0 0 419.12085 530.7015"
   id="svg6317"
   version="1.1"
   inkscape:version="0.91 r13725"
   sodipodi:docname="Worm.svg">
  <defs
     id="defs6319">
    <inkscape:path-effect
       effect="skeletal"
       id="path-effect6907"
       is_visible="true"
       pattern="m -65.714286,-413.57143 c 0,-2.76 2.24,-5 5,-5 2.76,0 5,2.24 5,5 0,2.76 -2.24,5 -5,5 -2.76,0 -5,-2.24 -5,-5 z"
       copytype="single_stretched"
       prop_scale="1"
       scale_y_rel="false"
       spacing="0"
       normal_offset="0"
       tang_offset="0"
       prop_units="false"
       vertical_pattern="false"
       fuse_tolerance="0" />
    <inkscape:path-effect
       effect="spiro"
       id="path-effect6905"
       is_visible="true" />
    <inkscape:path-effect
       effect="skeletal"
       id="path-effect6895"
       is_visible="true"
       pattern="M 0,5 C 0,2.24 2.24,0 5,0 7.76,0 10,2.24 10,5 10,7.76 7.76,10 5,10 2.24,10 0,7.76 0,5 Z"
       copytype="single_stretched"
       prop_scale="1"
       scale_y_rel="false"
       spacing="0"
       normal_offset="0"
       tang_offset="0"
       prop_units="false"
       vertical_pattern="false"
       fuse_tolerance="0" />
    <inkscape:path-effect
       effect="spiro"
       id="path-effect6893"
       is_visible="true" />
    <inkscape:path-effect
       effect="skeletal"
       id="path-effect6889"
       is_visible="true"
       pattern="M 0,5 C 0,2.24 2.24,0 5,0 7.76,0 10,2.24 10,5 10,7.76 7.76,10 5,10 2.24,10 0,7.76 0,5 Z"
       copytype="single_stretched"
       prop_scale="1"
       scale_y_rel="false"
       spacing="0"
       normal_offset="0"
       tang_offset="0"
       prop_units="false"
       vertical_pattern="false"
       fuse_tolerance="0" />
    <inkscape:path-effect
       effect="spiro"
       id="path-effect6887"
       is_visible="true" />
    <inkscape:path-effect
       effect="skeletal"
       id="path-effect6883"
       is_visible="true"
       pattern="M 0,5 C 0,2.24 2.24,0 5,0 7.76,0 10,2.24 10,5 10,7.76 7.76,10 5,10 2.24,10 0,7.76 0,5 Z"
       copytype="single_stretched"
       prop_scale="1"
       scale_y_rel="false"
       spacing="0"
       normal_offset="0"
       tang_offset="0"
       prop_units="false"
       vertical_pattern="false"
       fuse_tolerance="0" />
    <inkscape:path-effect
       effect="spiro"
       id="path-effect6881"
       is_visible="true" />
    <inkscape:path-effect
       effect="skeletal"
       id="path-effect6877"
       is_visible="true"
       pattern="M 0,5 C 0,2.24 2.24,0 5,0 7.76,0 10,2.24 10,5 10,7.76 7.76,10 5,10 2.24,10 0,7.76 0,5 Z"
       copytype="single_stretched"
       prop_scale="1"
       scale_y_rel="false"
       spacing="0"
       normal_offset="0"
       tang_offset="0"
       prop_units="false"
       vertical_pattern="false"
       fuse_tolerance="0" />
    <inkscape:path-effect
       effect="spiro"
       id="path-effect6875"
       is_visible="true" />
    <inkscape:path-effect
       effect="skeletal"
       id="path-effect6871"
       is_visible="true"
       pattern="M 0,5 C 0,2.24 2.24,0 5,0 7.76,0 10,2.24 10,5 10,7.76 7.76,10 5,10 2.24,10 0,7.76 0,5 Z"
       copytype="single_stretched"
       prop_scale="1"
       scale_y_rel="false"
       spacing="0"
       normal_offset="0"
       tang_offset="0"
       prop_units="false"
       vertical_pattern="false"
       fuse_tolerance="0" />
  </defs>
  <sodipodi:namedview
     id="base"
     pagecolor="#ffffff"
     bordercolor="#666666"
     borderopacity="1.0"
     inkscape:pageopacity="0.0"
     inkscape:pageshadow="2"
     inkscape:zoom="0.7"
     inkscape:cx="284.60343"
     inkscape:cy="182.49072"
     inkscape:document-units="px"
     inkscape:current-layer="layer1"
     showgrid="false"
     inkscape:window-width="1863"
     inkscape:window-height="1155"
     inkscape:window-x="0"
     inkscape:window-y="1"
     inkscape:window-maximized="1"
     fit-margin-top="0"
     fit-margin-left="0"
     fit-margin-right="0"
     fit-margin-bottom="0" />
  <metadata
     id="metadata6322">
    <rdf:RDF>
      <cc:Work
         rdf:about="">
        <dc:format>image/svg+xml</dc:format>
        <dc:type
           rdf:resource="http://purl.org/dc/dcmitype/StillImage" />
        <dc:title></dc:title>
      </cc:Work>
    </rdf:RDF>
  </metadata>
  <g
     inkscape:label="Layer 1"
     inkscape:groupmode="layer"
     id="layer1"
     transform="translate(-142.97793,-184.15142)">
    <path
       style="fill:#cc7b7b;fill-opacity:1;fill-rule:evenodd;stroke:#843030;stroke-width:65;stroke-linecap:butt;stroke-linejoin:miter;stroke-miterlimit:4;stroke-dasharray:none;stroke-opacity:1"
       d="m 529.59257,226.7328 c -0.0156,0.58631 -4.95442,0.53298 -13.99818,1.84601 -8.83748,1.28309 -22.35211,4.07216 -37.41992,11.32869 -13.33474,6.42805 -28.56288,16.74561 -41.04903,32.30071 -17.71235,21.93023 -28.5797,52.1371 -31.34725,88.83083 -2.30315,31.12353 1.34632,61.18366 5.33985,96.90253 2.8658,25.22898 5.71675,52.76915 4.42288,80.15244 -0.29778,6.30228 -0.81127,12.56559 -1.57932,18.79455 -4.26308,34.99534 -17.46297,67.56507 -40.44207,90.84982 -17.20375,17.30269 -38.82531,28.10618 -60.37342,32.38398 0,0 -3e-5,0 -3e-5,0 -24.50458,4.85497 -48.38065,1.33495 -67.88278,-6.86209 -24.31708,-10.23036 -41.52634,-27.2692 -52.01727,-43.44734 -11.68689,-18.03229 -15.73239,-35.60274 -17.07592,-46.74983 -1.3934,-11.5609 -0.29798,-17.75537 0.0271,-17.75664 0.70927,-0.003 0.65187,6.17702 2.93457,17.27612 2.2027,10.71017 7.04196,27.3942 18.78656,44.07664 10.54115,14.98138 27.29027,30.54836 50.20794,39.58075 18.36162,7.2443 40.69451,10.08971 63.25188,5.27652 0,-10e-6 2e-5,-10e-6 2e-5,-10e-6 19.8298,-4.2226 39.71984,-14.4657 55.35541,-30.46898 21.08489,-21.40541 33.09764,-52.07348 37.31559,-85.38959 0.74437,-5.95312 1.24062,-11.96269 1.52785,-18.03494 1.24633,-26.34894 -1.5168,-53.44269 -4.18508,-78.61346 -3.83904,-35.61376 -7.20072,-66.52324 -4.45111,-98.67622 3.20332,-38.07567 15.56402,-69.75105 34.82382,-92.5557 13.74185,-16.1792 30.10666,-26.44461 44.29172,-32.52872 16.0289,-6.88178 30.15099,-8.88798 39.27659,-9.35445 9.34744,-0.4778 14.26876,0.49566 14.25962,0.83838 z"
       id="path6903"
       inkscape:path-effect="#path-effect6905;#path-effect6907"
       inkscape:original-d="m 529.59257,226.7328 c -38.10604,2.84404 -66.80753,18.8151 -95.14753,43.2601 -134.83566,116.30409 38.19038,374.08069 -64.31849,374.40004 -43.78345,0.1364 -238.17355,21.89504 -193.92936,-79.08648"
       inkscape:connector-curvature="0" />
    <path
       sodipodi:type="spiral"
       style="fill:none;fill-rule:evenodd;stroke:#7ac516;stroke-width:5;stroke-linecap:butt;stroke-linejoin:miter;stroke-miterlimit:4;stroke-dasharray:none;stroke-opacity:1"
       id="path6921"
       sodipodi:cx="505.71429"
       sodipodi:cy="212.3622"
       sodipodi:expansion="1"
       sodipodi:revolution="3"
       sodipodi:radius="25.714285"
       sodipodi:argument="-20.420353"
       sodipodi:t0="0"
       d="m 505.71429,212.3622 c 0,-1.28928 1.73792,-0.63609 2.14286,0 1.09737,1.72374 -0.48262,3.75724 -2.14285,4.28571 -2.96977,0.94531 -5.82765,-1.45391 -6.42858,-4.28571 -0.88188,-4.15578 2.42955,-7.93496 6.42857,-8.57143 5.33006,-0.84831 10.05655,3.40556 10.71429,8.57142 0.8277,6.5007 -4.38148,12.18522 -10.71428,12.85715 -7.66986,0.8138 -14.31792,-5.35729 -15.00001,-12.85713 -0.80381,-8.83831 6.33302,-16.45317 14.99999,-17.14287 10.00636,-0.79629 18.5901,7.30869 19.28573,17.14284 0.79042,11.17419 -8.28433,20.72821 -19.2857,21.42859 -12.34187,0.78572 -22.86718,-9.25995 -23.57144,-21.42856 -0.78187,-13.50945 10.23555,-25.0068 23.57141,-25.7143" />
  </g>
</svg>
