<?xml version="1.0" encoding="UTF-8" standalone="no"?>
<!-- Created with Inkscape (http://www.inkscape.org/) -->

<svg
   xmlns:dc="http://purl.org/dc/elements/1.1/"
   xmlns:cc="http://creativecommons.org/ns#"
   xmlns:rdf="http://www.w3.org/1999/02/22-rdf-syntax-ns#"
   xmlns:svg="http://www.w3.org/2000/svg"
   xmlns="http://www.w3.org/2000/svg"
   xmlns:sodipodi="http://sodipodi.sourceforge.net/DTD/sodipodi-0.dtd"
   xmlns:inkscape="http://www.inkscape.org/namespaces/inkscape"
   width="128"
   height="128"
   viewBox="0 0 128 128"
   id="svg4262"
   version="1.1"
   inkscape:version="0.91 r13725"
   sodipodi:docname="Item - Stick.svg"
   inkscape:export-filename="/Users/luna/Documents/LudumDare38/Assets/Project/Art/Item - Stick.png"
   inkscape:export-xdpi="90"
   inkscape:export-ydpi="90">
  <defs
     id="defs4264" />
  <sodipodi:namedview
     id="base"
     pagecolor="#ffffff"
     bordercolor="#666666"
     borderopacity="1.0"
     inkscape:pageopacity="0.0"
     inkscape:pageshadow="2"
     inkscape:zoom="3.959798"
     inkscape:cx="-1.6046619"
     inkscape:cy="79.891259"
     inkscape:document-units="px"
     inkscape:current-layer="layer1"
     showgrid="false"
     units="px"
     inkscape:window-width="1863"
     inkscape:window-height="1155"
     inkscape:window-x="0"
     inkscape:window-y="1"
     inkscape:window-maximized="1" />
  <metadata
     id="metadata4267">
    <rdf:RDF>
      <cc:Work
         rdf:about="">
        <dc:format>image/svg+xml</dc:format>
        <dc:type
           rdf:resource="http://purl.org/dc/dcmitype/StillImage" />
        <dc:title />
      </cc:Work>
    </rdf:RDF>
  </metadata>
  <g
     inkscape:label="Layer 1"
     inkscape:groupmode="layer"
     id="layer1"
     transform="translate(0,-924.36216)">
    <path
       style="fill:#554400;fill-opacity:1;fill-rule:evenodd;stroke:#5d2000;stroke-width:6.87942028;stroke-linecap:square;stroke-linejoin:miter;stroke-miterlimit:4;stroke-dasharray:none;stroke-opacity:1"
       d="m 15.433171,1038.8724 c 1.548141,-1.6343 3.728881,-3.1165 4.936615,-5.1357 0.52028,-0.87 0.58844,-2.0456 0.987323,-2.9347 0.04906,-0.1094 0.251536,0.086 0.329108,0 0.875694,-0.9762 1.098952,-2.6924 1.974646,-3.6685 0.41006,-0.4571 1.101433,-0.7484 1.31643,-1.4674 0.06938,-0.232 -0.09812,-0.5148 0,-0.7337 0.370723,-0.8264 1.272816,-0.8442 1.645539,-1.4674 0.121705,-0.2035 -0.06938,-0.5015 0,-0.7336 0.08051,-0.2693 2.043513,-3.3785 2.303753,-3.6684 1.234252,-1.3757 2.696681,-2.6392 3.949292,-4.0354 0.173456,-0.1933 0.116128,-0.5979 0.329108,-0.7335 0.602404,-0.3838 1.354074,-0.3879 1.974645,-0.7338 1.421618,-0.7922 4.107026,-3.9512 5.594831,-5.1358 2.427151,-1.9324 4.793111,-3.6841 7.240369,-5.5026 2.370832,-1.7618 4.35749,-4.85714 6.253045,-6.97003 0.06064,-0.0675 0.926682,-0.29924 0.987324,-0.36684 0.799337,-0.89099 -0.09787,-0.53869 0.658215,-1.10054 0.06777,-0.0504 1.24866,-0.31647 1.316431,-0.36683 0.456389,-0.33915 0.548512,-1.10053 0.987322,-1.46738 0.862035,-0.72064 2.91651,-1.70448 3.949293,-2.56789 0.43881,-0.36684 0.530932,-1.12823 0.987323,-1.46738 0.182555,-0.13566 0.461973,0.10943 0.658214,0 2.986988,-1.66473 1.395123,-1.64812 2.632861,-2.56788 0.182557,-0.13568 0.47566,0.13568 0.658217,0 0.204103,-0.15168 0.155653,-0.54035 0.329107,-0.73369 0.985435,-1.09843 2.348947,-1.88458 3.291077,-2.93474 0.66277,-0.73877 1.819058,-0.58218 2.632861,-1.10053 0.212981,-0.13567 0.155653,-0.54034 0.329107,-0.73368 0.491158,-0.54747 1.881977,-1.20649 2.632863,-1.83421 1.014819,-0.84838 1.57443,-2.21765 2.303752,-3.30159 0.683741,-1.01618 1.271999,-1.01273 2.303754,-1.83421 1.230678,-0.97984 0.452735,-1.40796 1.974646,-2.93474 0.546996,-0.54875 1.375814,-0.62375 1.974646,-1.10053 0.640477,-0.50994 1.039241,-1.98862 1.645539,-2.56789 0.600629,-0.57386 1.374016,-0.89351 1.974646,-1.46738 0.740114,-0.70711 1.132091,-1.86352 1.974645,-2.56789 1.128943,-0.94379 2.624875,-1.82531 3.620185,-2.93474 2.006627,-2.2367 3.888409,-4.67394 5.594825,-7.33685 0.486782,-0.75963 0.645432,-1.8057 0.987332,-2.5679 0.13876,-0.30934 0.56009,-0.40556 0.65821,-0.73368 0.13876,-0.46403 -0.19624,-1.02988 0,-1.46736 0.0646,-0.14382 1.17034,-0.85627 1.31643,-1.10054 0.1217,-0.20348 -0.0981,-0.51494 0,-0.73367 0.0364,-0.0813 3.89671,-4.11849 4.2784,-4.40212 0.83378,-0.61959 2.59076,-3.30157 2.96197,-3.30157"
       id="path4812"
       inkscape:connector-curvature="0" />
    <path
       style="fill:none;fill-rule:evenodd;stroke:#5d2000;stroke-width:4.12765217;stroke-linecap:butt;stroke-linejoin:miter;stroke-miterlimit:4;stroke-dasharray:none;stroke-opacity:1"
       d="m 57.558954,990.81607 c 1.744543,-1.05156 2.543165,-3.19057 3.291076,-5.13578 0.412969,-1.07409 1.113308,-3.44201 1.645539,-4.03527 0.251175,-0.27998 -0.08712,-3.45264 0,-4.03527 0.01804,-0.12061 0.251536,0.0864 0.329107,0 0.478234,-0.53306 -0.329107,-8.12436 -0.329107,-9.17107"
       id="path4814"
       inkscape:connector-curvature="0" />
    <path
       style="fill:none;fill-rule:evenodd;stroke:#5d2000;stroke-width:2.75176787;stroke-linecap:butt;stroke-linejoin:miter;stroke-miterlimit:4;stroke-dasharray:none;stroke-opacity:1"
       d="m 88.824181,967.9336 c 2.212479,-0.64029 4.452251,-1.40969 6.582153,-2.20104 0.579218,-0.21522 1.134333,-0.91059 1.645537,-1.10053 0.416293,-0.15468 0.890723,0.11865 1.316431,0 0.898519,-0.25039 1.839388,-0.80571 2.632868,-1.10053 0.41629,-0.15467 0.89072,0.11865 1.31642,0 1.92837,-0.53737 4.34036,-0.34382 5.26573,0 0.5766,0.21423 1.11862,-0.58733 1.97464,0.36685"
       id="path4816"
       inkscape:connector-curvature="0" />
  </g>
</svg>
